<svg width="23" height="24" viewBox="0 0 23 24" fill="none" xmlns="http://www.w3.org/2000/svg">
<path d="M7.6665 8L7.6665 6.83334C7.6665 4.71624 9.38274 3 11.4998 3V3C13.6169 3 15.3332 4.71624 15.3332 6.83334L15.3332 8" stroke="#E8E8E8" stroke-width="2" stroke-linecap="round"/>
<path d="M16.125 7C18.0106 7 18.9533 7.00015 19.5391 7.58594C20.1248 8.17172 20.125 9.11438 20.125 11V14C20.125 17.7712 20.1247 19.6566 18.9531 20.8281C17.7816 21.9997 15.8962 22 12.125 22H10.875C7.10376 22 5.21845 21.9997 4.04688 20.8281C2.8753 19.6566 2.875 17.7712 2.875 14V11C2.875 9.11438 2.87515 8.17172 3.46094 7.58594C4.04672 7.00015 4.98938 7 6.875 7H16.125ZM8.625 11C8.07272 11 7.625 11.4477 7.625 12V14C7.625 14.5523 8.07272 15 8.625 15C9.17728 15 9.625 14.5523 9.625 14V12C9.625 11.4477 9.17728 11 8.625 11ZM14.375 11C13.8227 11 13.375 11.4477 13.375 12V14C13.375 14.5523 13.8227 15 14.375 15C14.9273 15 15.375 14.5523 15.375 14V12C15.375 11.4477 14.9273 11 14.375 11Z" fill="#E8E8E8"/>
</svg>
