<svg width="19" height="21" viewBox="0 0 19 21" fill="none" xmlns="http://www.w3.org/2000/svg">
<path d="M5 6C5 3.64298 5 2.46447 5.69562 1.73223C6.39124 1 7.51083 1 9.75 1H12.9167C15.1558 1 16.2754 1 16.971 1.73223C17.6667 2.46447 17.6667 3.64298 17.6667 6V11.6897C17.6667 13.9257 17.6667 15.0438 16.9983 15.3857C16.3299 15.7277 15.4947 15.037 13.8243 13.6555L13.2898 13.2133C12.3506 12.4365 11.8809 12.0482 11.3333 12.0482C10.7857 12.0482 10.3161 12.4365 9.3769 13.2133L8.84233 13.6555C7.17197 15.037 6.3368 15.7277 5.6684 15.3857C5 15.0438 5 13.9257 5 11.6897V6Z" fill="#E8E8E8" stroke="#E8E8E8" stroke-width="2"/>
</svg>
