<svg width="24" height="24" viewBox="0 0 24 24" fill="none" xmlns="http://www.w3.org/2000/svg">
<path d="M3 12C3 7.02944 7.02944 3 12 3C16.9706 3 21 7.02944 21 12C21 16.9706 16.9706 21 12 21C7.02944 21 3 16.9706 3 12Z" fill="#E8E8E8"/>
<circle cx="12" cy="10" r="4" fill="#2C2C2C"/>
<path d="M11.9999 15C14.7072 15 17.0551 16.3177 18.2195 18.2454C18.2777 18.3418 18.26 18.4652 18.1782 18.5425C16.5662 20.0654 14.3925 21 11.9999 21C9.60726 21 7.43361 20.0654 5.82161 18.5425C5.73979 18.4652 5.72204 18.3418 5.78024 18.2454C6.94465 16.3177 9.29254 15 11.9999 15Z" fill="#2C2C2C"/>
</svg>
