<svg width="15" height="17" viewBox="0 0 15 17" fill="none" xmlns="http://www.w3.org/2000/svg">
<path d="M1 6C1 3.64298 1 2.46447 1.69562 1.73223C2.39124 1 3.51083 1 5.75 1H8.91667C11.1558 1 12.2754 1 12.971 1.73223C13.6667 2.46447 13.6667 3.64298 13.6667 6V11.6897C13.6667 13.9257 13.6667 15.0438 12.9983 15.3857C12.3299 15.7277 11.4947 15.037 9.82434 13.6555L9.28977 13.2133C8.35056 12.4365 7.88095 12.0482 7.33333 12.0482C6.78572 12.0482 6.31611 12.4365 5.3769 13.2133L4.84233 13.6555C3.17197 15.037 2.3368 15.7277 1.6684 15.3857C1 15.0438 1 13.9257 1 11.6897V6Z" fill="#E8E8E8" stroke="#E8E8E8" stroke-width="2"/>
</svg>
