<svg width="78" height="76" viewBox="0 0 78 76" fill="none" xmlns="http://www.w3.org/2000/svg">
<path d="M9.75 38C9.75 22.2599 22.5099 9.5 38.25 9.5H39.75C55.4901 9.5 68.25 22.2599 68.25 38C68.25 53.7401 55.4901 66.5 39.75 66.5H38.25C22.5099 66.5 9.75 53.7401 9.75 38Z" fill="#373737"/>
<ellipse cx="39" cy="28.6667" rx="13" ry="12.6667" fill="#00A8EA"/>
<path d="M38.9912 44C47.4554 44 54.587 50.7985 56.7586 60.0663C56.7783 60.1504 56.7528 60.2392 56.6911 60.2996C53.7445 63.1808 49.9082 65.1564 45.6192 65.7871C44.1721 65.9999 42.4449 66 38.9912 66C35.5376 66 33.8104 65.9999 32.3633 65.7871C28.0748 65.1564 24.2387 63.1813 21.2924 60.3006C21.2306 60.2402 21.2051 60.1514 21.2248 60.0673C23.3962 50.7992 30.5268 44 38.9912 44Z" fill="#00A8EA"/>
</svg>
